:version 1.10
:name ASF
:units
  mass 1
  length 1
  angle deg
:documentation
  ASF file generated by Kaydara
:root
  axis xyz
  order  tx ty tz rx ry rz
  position 0 0 0
  orientation 0 0 0
:bonedata
  begin
    id 1
    name LeftUpLegDummy
    direction 1 -2.30186e-007 -8.31532e-007
    length 2.93387
    axis 0 0 0 xyz
  end
  begin
    id 2
    name LeftUpLeg
    direction -1.82929e-007 -1 -1.48925e-009
    length 17.3336
    axis -3.48766 0.00143442 -0.000521554 xyz
    dof rx ry rz
  end
  begin
    id 3
    name LeftLeg
    direction -1.82929e-007 -1 -5.23717e-011
    length 14.9995
    axis 3.68178 -0.00654042 -0.000282425 xyz
    dof rx ry rz
  end
  begin
    id 4
    name LeftFoot
    direction 8.31532e-007 -4.54534e-011 1
    length 6.74421
    axis 1.87234e-006 4.66016e-005 -5.96866e-006 xyz
    dof rx ry rz
  end
  begin
    id 5
    name LeftToes
    direction 0.00818058 -0.00485161 0.999955
    length 3.85048
    axis 1.06247e-005 4.65869e-005 -5.96999e-006 xyz
    dof rx ry rz
  end
  begin
    id 6
    name SpineDummy
    direction -5.8607e-008 0.943407 -0.331637
    length 5.93572
    axis 0 0 0 xyz
  end
  begin
    id 7
    name Spine
    direction -1.04988e-007 0.999988 0.00495137
    length 10.1015
    axis -0.001389 0.000121417 6.61666e-006 xyz
    dof rx ry rz
  end
  begin
    id 8
    name Spine1
    direction 0 0 0
    length 0
    axis -0.001389 0.00012144 6.56766e-006 xyz
    dof rx ry rz
  end
  begin
    id 9
    name RightShoulderDummy
    direction -0.98348 0.17941 -0.0240696
    length 3.59882
    axis -0.001389 0.00012144 6.56766e-006 xyz
  end
  begin
    id 10
    name RightShoulder
    direction -0.978693 0.204882 0.0135597
    length 2.70001
    axis 0.215806 0.000203631 -0.00679732 xyz
    dof rx ry rz
  end
  begin
    id 11
    name RightArm
    direction -1 3.85509e-006 8.31394e-007
    length 10.2459
    axis -23.2009 -0.134239 -0.964098 xyz
    dof rx ry rz
  end
  begin
    id 12
    name RightForeArm
    direction -1 3.85569e-006 8.3129e-007
    length 8.16799
    axis -9.92322 0.0658061 0.17887 xyz
    dof rx ry rz
  end
  begin
    id 13
    name RightHand
    direction -0.992843 -0.0414604 0.112003
    length 5.28593
    axis -0.00960638 0.00330669 -0.185225 xyz
    dof rx ry rz
  end
  begin
    id 14
    name LeftShoulder1Dummy
    direction 0.983523 0.179172 -0.0240748
    length 3.59866
    axis -0.001389 0.00012144 6.56766e-006 xyz
  end
  begin
    id 15
    name LeftShoulder1
    direction 0.978627 0.205195 0.0135605
    length 2.70019
    axis -0.001389 0.00012144 6.57583e-006 xyz
    dof rx ry rz
  end
  begin
    id 16
    name LeftArm
    direction 1 3.51895e-006 -8.60188e-007
    length 10.2459
    axis -23.1894 0.134785 0.967513 xyz
    dof rx ry rz
  end
  begin
    id 17
    name LeftForeArm
    direction 1 3.51921e-006 -7.32029e-007
    length 8.16799
    axis -9.91835 -0.0656957 -0.177789 xyz
    dof rx ry rz
  end
  begin
    id 18
    name LeftHand
    direction 0.992938 -0.0411636 0.11126
    length 5.32135
    axis -0.00960237 -0.00340661 0.185177 xyz
    dof rx ry rz
  end
  begin
    id 19
    name HEadDummy
    direction 1.01974e-006 0.999861 -0.016675
    length 2.99946
    axis -0.001389 0.00012144 6.56766e-006 xyz
  end
  begin
    id 20
    name HEad
    direction -0.0222689 0.980941 0.193023
    length 5.12695
    axis -0.001389 0.00012144 6.56766e-006 xyz
    dof rx ry rz
  end
  begin
    id 21
    name RightUpLegDummy
    direction -1 2.30186e-007 8.31532e-007
    length 2.93387
    axis 0 0 0 xyz
  end
  begin
    id 22
    name RightUpLeg
    direction -1.82966e-007 -1 1.56832e-007
    length 17.3336
    axis -3.4909 -0.000906625 0.00028951 xyz
    dof rx ry rz
  end
  begin
    id 23
    name RightLeg
    direction -1.82786e-007 -1 -1.80317e-007
    length 14.9995
    axis 3.68513 0.0193739 -0.131021 xyz
    dof rx ry rz
  end
  begin
    id 24
    name RightFoot
    direction 8.31721e-007 -4.63324e-011 1
    length 6.74421
    axis 4.81691e-005 -0.120479 -0.188785 xyz
    dof rx ry rz
  end
  begin
    id 25
    name RightToes
    direction 0.00124746 -0.014064 0.9999
    length 3.85082
    axis 0.000481921 0.542163 -0.142575 xyz
    dof rx ry rz
  end
:hierarchy
  begin
    root LeftUpLegDummy SpineDummy RightUpLegDummy
    LeftUpLegDummy LeftUpLeg
    LeftUpLeg LeftLeg
    LeftLeg LeftFoot
    LeftFoot LeftToes
    SpineDummy Spine
    Spine Spine1
    Spine1 RightShoulderDummy LeftShoulder1Dummy HEadDummy
    RightShoulderDummy RightShoulder
    RightShoulder RightArm
    RightArm RightForeArm
    RightForeArm RightHand
    LeftShoulder1Dummy LeftShoulder1
    LeftShoulder1 LeftArm
    LeftArm LeftForeArm
    LeftForeArm LeftHand
    HEadDummy HEad
    RightUpLegDummy RightUpLeg
    RightUpLeg RightLeg
    RightLeg RightFoot
    RightFoot RightToes
  end

:SAMPLES-PER-SECOND 30
:FULLY-SPECIFIED
:DEGREES
202
root  3.49486 34.4417 30.1711 5.74581 10.0787 -0.0393016
LeftUpLeg  -10.8918 5.73534 0.181211
LeftLeg  14.4166 0.439488 0.0816396
LeftFoot  -1.53031 -0.00474005 -0.0136141
LeftToes  -12.3675 2.60077e-006 -1.42232e-007
Spine  1.28762 2.33436 -1.77545
Spine1  2.24199 4.57805 -3.19895
RightShoulder  0.0325613 8.81685 6.73096
RightArm  -58.3507 -7.76262 55.483
RightForeArm  -1.36048 46.4724 10.6881
RightHand  1.01094 -12.0396 -9.18961
LeftShoulder1  0.0537122 1.20138 -10.8506
LeftArm  -21.528 11.1619 -65.4806
LeftForeArm  30.6264 -16.4635 -2.97955
LeftHand  0.0691445 2.90211 2.90809
HEad  -3.99818 -16.6502 1.26809
RightUpLeg  -9.55924 -5.00712 -6.33709
RightLeg  11.7679 3.66576 0.521692
RightFoot  2.99173 0.0068596 0.226578
RightToes  -37.4031 -0.196751 -0.29537
203
root  3.3951 34.4478 30.154 5.77782 10.3668 0.0437972
LeftUpLeg  -10.9137 5.82674 0.233132
LeftLeg  14.2058 0.200046 0.0355101
LeftFoot  -1.23166 -0.00512878 -0.00558691
LeftToes  -12.6468 2.60077e-006 -1.42232e-007
Spine  1.26544 2.4914 -1.76973
Spine1  2.15663 4.9299 -3.2318
RightShoulder  0.0345739 8.50693 6.12439
RightArm  -56.0413 -2.5371 54.6119
RightForeArm  0.885164 47.879 11.242
RightHand  0.881312 -11.3173 -8.50208
LeftShoulder1  0.0535675 1.0396 -10.9064
LeftArm  -21.2362 11.2473 -65.3634
LeftForeArm  30.7671 -16.5101 -2.9884
LeftHand  0.0699906 2.85905 2.97941
HEad  -4.20273 -15.6708 0.977979
RightUpLeg  -9.56703 -5.19843 -6.26057
RightLeg  11.7537 3.64232 0.51745
RightFoot  2.93585 0.00671041 0.227191
RightToes  -37.1488 -0.196116 -0.294724
204
root  3.2878 34.4527 30.1537 5.8868 10.7233 0.138134
LeftUpLeg  -10.9413 5.90386 0.30018
LeftLeg  13.8898 -0.139414 -0.0267196
LeftFoot  -0.885148 -0.00557346 0.00329484
LeftToes  -13.0647 2.60077e-006 -1.42232e-007
Spine  1.2099 2.67211 -1.79085
Spine1  2.00278 5.33354 -3.31403
RightShoulder  0.0385328 8.00828 5.71346
RightArm  -51.828 2.6078 54.4943
RightForeArm  3.16225 49.0977 11.7482
RightHand  0.746851 -10.5581 -7.69493
LeftShoulder1  0.0531639 0.909386 -10.8833
LeftArm  -21.2967 11.3283 -65.3537
LeftForeArm  31.1355 -16.3054 -2.94899
LeftHand  0.0717573 2.74347 3.078
HEad  -4.50614 -15.1109 0.77435
RightUpLeg  -9.53897 -5.50367 -6.1715
RightLeg  11.595 3.65519 0.50898
RightFoot  2.87394 0.00646275 0.229406
RightToes  -36.9639 -0.194695 -0.294059
205
root  3.17989 34.456 30.1685 6.02339 11.0366 0.220931
LeftUpLeg  -10.9533 5.96072 0.37758
LeftLeg  13.5437 -0.399409 -0.0710073
LeftFoot  -0.568634 -0.00582643 0.0091816
LeftToes  -13.482 2.60077e-006 -1.42232e-007
Spine  1.1686 2.91858 -1.82358
Spine1  1.8812 5.86958 -3.40887
RightShoulder  0.0423282 7.47543 5.46706
RightArm  -45.7427 7.15735 54.9706
RightForeArm  6.95422 50.6525 12.4342
RightHand  0.600976 -9.43549 -6.89772
LeftShoulder1  0.0524731 0.795625 -10.8065
LeftArm  -21.6113 11.3366 -65.4827
LeftForeArm  31.4436 -15.9534 -2.88163
LeftHand  0.0712727 2.84636 3.08824
HEad  -4.93957 -14.9948 0.634616
RightUpLeg  -9.50496 -6.01381 -6.06265
RightLeg  11.397 3.91902 0.531828
RightFoot  2.78618 0.00544159 0.243707
RightToes  -36.7007 -0.192883 -0.293373
206
root  3.07084 34.4613 30.1902 6.11914 11.3702 0.274059
LeftUpLeg  -10.9413 5.84246 0.504143
LeftLeg  13.2474 -0.541979 -0.0928713
LeftFoot  -0.282001 -0.00580144 0.0107321
LeftToes  -13.7877 2.60077e-006 -1.42232e-007
Spine  1.16578 3.19075 -1.87223
Spine1  1.84319 6.45614 -3.53094
RightShoulder  0.0455845 7.13898 4.90055
RightArm  -39.8321 10.0981 56.4695
RightForeArm  9.62599 52.1425 13.1352
RightHand  1.20489 -9.22844 -14.4659
LeftShoulder1  0.0514669 0.736888 -10.6473
LeftArm  -21.8785 11.2925 -65.6849
LeftForeArm  31.6254 -15.5774 -2.81004
LeftHand  0.0718253 2.85557 3.1262
HEad  -5.43302 -15.0693 0.61296
RightUpLeg  -9.36131 -6.3635 -5.91709
RightLeg  11.0611 3.96846 0.5149
RightFoot  2.77818 0.00485003 0.251424
RightToes  -36.5374 -0.190898 -0.292662
207
root  2.95206 34.4711 30.2171 6.1556 11.8368 0.210572
LeftUpLeg  -11.0074 5.63014 0.782505
LeftLeg  13.1729 -0.771802 -0.130558
LeftFoot  -0.0644487 -0.00566437 0.0105236
LeftToes  -14.2673 2.60077e-006 -1.42232e-007
Spine  1.13496 3.38504 -1.91499
Spine1  1.77227 6.8704 -3.64298
RightShoulder  0.0478128 7.2239 3.94405
RightArm  -39.1149 10.0665 59.3027
RightForeArm  9.30574 52.1618 13.144
RightHand  1.45702 -9.60904 -16.824
LeftShoulder1  0.050117 0.716906 -10.492
LeftArm  -22.1831 11.447 -65.792
LeftForeArm  32.0286 -15.3068 -2.75852
LeftHand  0.0727739 2.89736 3.21119
HEad  -6.02715 -15.0939 0.716259
RightUpLeg  -9.05163 -6.42111 -5.63774
RightLeg  10.5084 3.60848 0.43308
RightFoot  2.86047 0.00555175 0.239154
RightToes  -36.0801 -0.188855 -0.291926
208
root  2.82601 34.4729 30.2495 6.13632 12.3507 0.105354
LeftUpLeg  -11.1419 5.39768 1.12454
LeftLeg  13.3354 -1.02146 -0.17529
LeftFoot  0.0311189 -0.00545536 0.00917909
LeftToes  -14.6656 2.60077e-006 -1.42232e-007
Spine  1.15631 3.47808 -1.8793
Spine1  1.80939 7.08118 -3.59759
RightShoulder  0.0516254 7.194 4.22385
RightArm  -37.4519 7.98696 61.0758
RightForeArm  9.908 53.2052 13.6629
RightHand  1.52969 -8.54969 -19.8673
LeftShoulder1  0.0483952 0.876695 -10.7015
LeftArm  -22.3226 11.6906 -65.7478
LeftForeArm  32.2147 -15.198 -2.73781
LeftHand  0.0745325 2.85608 3.30823
HEad  -6.73023 -14.8593 0.939513
RightUpLeg  -8.86155 -6.55517 -5.29412
RightLeg  10.3214 3.23272 0.377468
RightFoot  2.81263 0.0067957 0.218562
RightToes  -35.9369 -0.186866 -0.291039
209
root  2.70367 34.4665 30.2847 6.14016 12.7907 0.0491952
LeftUpLeg  -11.2321 5.04389 1.4077
LeftLeg  13.4006 -1.06302 -0.183609
LeftFoot  0.127699 -0.00521456 0.00732153
LeftToes  -15.0779 2.60077e-006 -1.42232e-007
Spine  1.26602 3.52547 -1.74346
Spine1  2.02902 7.19803 -3.34184
RightShoulder  0.055563 7.0366 5.2098
RightArm  -35.815 4.15429 62.008
RightForeArm  13.5982 57.8908 16.3716
RightHand  1.48568 -7.83189 -21.0637
LeftShoulder1  0.0462733 1.14875 -11.1935
LeftArm  -22.1396 11.9689 -65.7298
LeftForeArm  32.0277 -15.2401 -2.74591
LeftHand  0.0734713 2.84573 3.16398
HEad  -7.64848 -14.4239 0.973218
RightUpLeg  -8.86516 -6.67122 -5.01593
RightLeg  10.5116 2.93795 0.353061
RightFoot  2.54787 0.00834068 0.193398
RightToes  -35.6507 -0.184791 -0.28976
210
root  2.58809 34.4563 30.3244 6.10775 13.1855 0.0023604
LeftUpLeg  -11.2955 4.80567 1.67037
LeftLeg  13.5244 -1.17733 -0.205819
LeftFoot  0.127395 -0.0049821 0.00557396
LeftToes  -15.2977 2.60077e-006 -1.42232e-007
Spine  1.41261 3.51806 -1.54029
Spine1  2.33664 7.20687 -2.95744
RightShoulder  0.0583533 6.64361 6.06318
RightArm  -33.6825 -0.0454154 62.9273
RightForeArm  18.5302 63.4798 20.7895
RightHand  1.44716 -7.47494 -21.4964
LeftShoulder1  0.0417521 1.43316 -11.4471
LeftArm  -22.1143 12.4292 -66.1302
LeftForeArm  31.998 -15.2586 -2.74942
LeftHand  0.072957 2.90209 3.1041
HEad  -8.58475 -13.6709 0.656273
RightUpLeg  -8.86182 -6.89203 -4.76618
RightLeg  10.7673 2.80775 0.350167
RightFoot  2.22721 0.00947831 0.174666
RightToes  -35.2877 -0.182627 -0.288297
211
root  2.48141 34.4531 30.3605 6.13224 13.5206 0.0212472
LeftUpLeg  -11.3359 4.65916 1.85541
LeftLeg  13.5047 -1.35737 -0.236563
LeftFoot  0.263026 -0.00479812 0.0045594
LeftToes  -15.7566 2.60077e-006 -1.42232e-007
Spine  1.5224 3.40285 -1.34266
Spine1  2.58497 7.00658 -2.60333
RightShoulder  0.0602522 6.22256 6.68034
RightArm  -30.6372 -3.67584 63.8642
RightForeArm  26.3738 68.7147 27.0854
RightHand  1.36896 -6.69333 -22.7019
LeftShoulder1  0.0359959 1.63448 -11.3534
LeftArm  -22.2584 13.2467 -66.7655
LeftForeArm  31.9288 -15.2479 -2.74745
LeftHand  0.0728442 2.88072 3.02657
HEad  -9.03714 -12.2414 -0.0336237
RightUpLeg  -8.84944 -7.13193 -4.5949
RightLeg  10.8852 2.75858 0.349809
RightFoot  1.9749 0.0102246 0.162121
RightToes  -35.0904 -0.18069 -0.286744
212
root  2.38755 34.4604 30.3904 6.17693 13.3987 0.0132257
LeftUpLeg  -11.2903 4.98827 2.02026
LeftLeg  13.3498 -1.54714 -0.265087
LeftFoot  0.434503 -0.00470276 0.00490085
LeftToes  -16.0556 2.60077e-006 -1.42232e-007
Spine  1.57539 3.24164 -1.13016
Spine1  2.72923 6.72255 -2.23997
RightShoulder  0.0614013 6.17423 6.90966
RightArm  -27.5584 -6.03334 64.775
RightForeArm  35.1999 72.5212 34.3343
RightHand  1.31204 -6.15962 -23.6334
LeftShoulder1  0.0308491 1.6418 -11.0662
LeftArm  -22.444 14.5758 -67.4881
LeftForeArm  31.8802 -15.2464 -2.74719
LeftHand  0.0727084 2.92406 2.98703
HEad  -8.81061 -9.96144 -1.09955
RightUpLeg  -8.90152 -7.15303 -4.41436
RightLeg  10.8904 2.88932 0.366587
RightFoot  1.87436 0.0101738 0.162072
RightToes  -34.9293 -0.179296 -0.285195
213
root  2.30763 34.4772 30.3937 6.2228 12.7007 -0.0172914
LeftUpLeg  -11.1649 5.24515 2.16058
LeftLeg  13.1103 -1.1057 -0.185123
LeftFoot  0.612889 -0.00478414 0.00796689
LeftToes  -16.0724 2.60077e-006 -1.42232e-007
Spine  1.5891 3.11767 -0.926092
Spine1  2.79326 6.51484 -1.89652
RightShoulder  0.062316 6.1402 6.90604
RightArm  -25.1802 -6.48049 66.1006
RightForeArm  44.1806 74.6046 40.2069
RightHand  1.11703 -5.26628 -23.5369
LeftShoulder1  0.0274597 1.48959 -10.7298
LeftArm  -22.255 16.0517 -68.1563
LeftForeArm  31.6242 -15.1471 -2.7286
LeftHand  0.0694307 3.08087 2.71673
HEad  -8.39842 -7.04034 -2.18581
RightUpLeg  -9.05223 -6.94816 -4.24989
RightLeg  10.7829 3.33612 0.416699
RightFoot  2.02014 0.00860188 0.185763
RightToes  -34.9104 -0.179155 -0.283743
214
root  2.2434 34.4895 30.376 6.24283 11.7017 0.000377633
LeftUpLeg  -11.0504 5.40476 2.2162
LeftLeg  13.0078 -0.266316 -0.045245
LeftFoot  0.76699 -0.00549963 0.0208646
LeftToes  -16.2585 2.60077e-006 -1.42232e-007
Spine  1.60104 3.02358 -0.714749
Spine1  2.85347 6.35732 -1.51665
RightShoulder  0.0632391 5.6019 6.75106
RightArm  -21.7655 -5.24365 67.5291
RightForeArm  52.1416 75.8699 44.9527
RightHand  0.966939 -4.60118 -23.3219
LeftShoulder1  0.0256378 1.30294 -10.4784
LeftArm  -21.9318 17.289 -68.8459
LeftForeArm  31.6193 -14.8407 -2.67082
LeftHand  0.0657949 3.19712 2.35721
HEad  -7.93713 -3.83206 -3.36231
RightUpLeg  -9.23201 -6.90599 -4.16569
RightLeg  10.6667 4.23755 0.520126
RightFoot  2.14576 0.00573932 0.229621
RightToes  -34.5768 -0.177887 -0.282484
215
root  2.19699 34.4939 30.3443 6.26421 10.591 0.0456127
LeftUpLeg  -10.9614 5.76298 2.20692
LeftLeg  12.9764 0.460722 0.073895
LeftFoot  0.822968 -0.00634859 0.0358128
LeftToes  -16.3016 2.60077e-006 -1.42232e-007
Spine  1.62428 2.98643 -0.52133
Spine1  2.93119 6.30218 -1.14977
RightShoulder  0.0640156 4.91435 6.44298
RightArm  -17.698 -3.28193 69.1712
RightForeArm  58.4476 76.8016 49.3517
RightHand  0.966989 -4.61918 -23.2333
LeftShoulder1  0.0244307 1.26717 -10.3548
LeftArm  -21.6646 18.0103 -69.4949
LeftForeArm  31.9476 -14.4818 -2.60313
LeftHand  0.0630519 3.35804 2.12658
HEad  -7.48044 -0.656177 -4.45625
RightUpLeg  -9.50307 -7.20904 -4.13608
RightLeg  10.6801 5.59888 0.687788
RightFoot  2.22209 0.0016422 0.292779
RightToes  -34.4454 -0.176119 -0.281645
216
root  2.16044 34.4996 30.309 6.29939 9.4704 0.0448319
LeftUpLeg  -10.8659 6.2704 2.22774
LeftLeg  12.876 1.04222 0.167192
LeftFoot  0.893598 -0.00709494 0.0491421
LeftToes  -16.3699 2.60077e-006 -1.42232e-007
Spine  1.67467 3.04923 -0.411967
Spine1  3.05204 6.43728 -0.934717
RightShoulder  0.0646331 4.49598 6.25468
RightArm  -14.4225 -1.20679 71.1443
RightForeArm  60.2755 77.3125 52.2347
RightHand  1.11966 -4.97593 -24.946
LeftShoulder1  0.0239306 1.25844 -10.2812
LeftArm  -21.7269 18.1895 -69.9024
LeftForeArm  32.2529 -14.2362 -2.55688
LeftHand  0.0611948 3.44213 1.91811
HEad  -7.3431 2.0528 -5.19853
RightUpLeg  -9.74111 -7.16857 -4.07826
RightLeg  10.5681 6.66569 0.804994
RightFoot  2.38233 -0.00245884 0.356026
RightToes  -34.2547 -0.174053 -0.280102
